<svg width="266" height="214" viewBox="0 0 266 214" fill="none" xmlns="http://www.w3.org/2000/svg">
<path fill-rule="evenodd" clip-rule="evenodd" d="M17.4562 48.0314L47.8708 17.5489C47.5441 17.4507 47.2174 17.3324 46.9028 17.2186L46.9028 17.2186L46.9028 17.2186L46.9021 17.2184C46.7013 17.1457 46.5056 17.0749 46.3179 17.0122L63.2923 0C61.2039 0.107333 59.1156 0.321997 57.0273 0.643995L41.9271 15.7779C41.4349 15.6434 40.9428 15.5463 40.4819 15.4554L40.4818 15.4554L40.481 15.4552C40.3906 15.4374 40.3014 15.4198 40.2136 15.4022L15.4214 40.2497C15.3922 40.0149 15.3468 39.7961 15.303 39.5846C15.2668 39.4094 15.2315 39.2393 15.2073 39.0691L1.44574 52.8613C1.12446 54.3103 0.91028 55.7056 0.696093 57.1546C0.535456 58.2279 0.428366 59.3012 0.321275 60.3746L0.321267 60.3746C0.214174 61.3943 0.160622 62.4139 0.107076 63.4336C0.0535288 64.6143 0 65.8486 0 67.0292L17.9382 49.051C17.8756 48.8317 17.7949 48.6307 17.7172 48.4373L17.7172 48.4373C17.6617 48.2994 17.6079 48.1654 17.5633 48.0314H17.4562ZM14.7254 32.4681L32.3958 14.7582L42.6233 4.50797C41.3917 4.99096 40.2137 5.47396 38.9821 6.01062C37.0009 6.92295 35.0732 7.94261 33.1455 9.01594C29.772 11.0016 26.5592 13.2556 23.5071 15.8316C22.1149 17.0122 20.7762 18.2465 19.4911 19.5345C18.2059 20.8225 16.9208 22.2178 15.7963 23.5595C13.2261 26.6185 10.9236 29.8385 8.99588 33.2194C7.8714 35.1514 6.85402 37.0834 5.94372 39.0691C5.40825 40.2497 4.87279 41.4841 4.44442 42.7184C4.35517 42.9688 4.25997 43.2193 4.16477 43.4697C3.97438 43.9706 3.784 44.4715 3.64121 44.9724L14.7254 33.8634V32.4681ZM60.5079 23.2912L23.2393 60.643C23.3196 60.8039 23.3999 60.9515 23.4802 61.099L23.4803 61.0991C23.5606 61.2467 23.6409 61.3943 23.7212 61.5553L1.9277 83.3975C1.7137 82.486 1.4997 81.5208 1.2857 80.5556L1.28566 80.5555L1.28562 80.5553L1.28558 80.5551L1.28554 80.5549L1.2855 80.5547L1.28545 80.5545L1.28541 80.5544L1.28537 80.5542L1.28515 80.5532C1.26351 80.4448 1.24188 80.3373 1.22038 80.2306L1.21944 80.2259L1.21839 80.2207L1.2181 80.2193L1.21743 80.216L1.21626 80.2101L1.21604 80.2091C1.07944 79.5311 0.948486 78.8811 0.856784 78.1918C0.712926 77.471 0.611995 76.707 0.515563 75.9771L0.481938 75.7232C0.375104 74.706 0.268284 73.6354 0.16145 72.5647L0.160671 72.5569L19.4911 53.1833C19.5714 53.3443 19.6383 53.5053 19.7052 53.6663L19.7052 53.6663C19.7722 53.8273 19.8391 53.9883 19.9194 54.1493L53.9751 20.0176L55.4209 20.6616L75.5545 0.483015C77.1609 0.69768 78.7673 0.966012 80.3737 1.28801L59.1692 22.5399C59.3834 22.674 59.611 22.7948 59.8385 22.9155C60.0661 23.0363 60.2937 23.157 60.5079 23.2912ZM30.3075 71.9129L71.6991 30.4288C71.485 30.2947 71.2842 30.1471 71.0834 29.9996L71.0833 29.9995C70.8825 29.8519 70.6817 29.7043 70.4675 29.5701L94.1887 5.79595C92.85 5.20562 91.5649 4.66895 90.2263 4.18596L67.1476 27.3161L65.8625 26.5111L26.345 66.1169C26.2647 65.9828 26.1711 65.8354 26.0775 65.6879L26.0773 65.6876C25.9836 65.54 25.8899 65.3924 25.8095 65.2582L3.15924 87.9054C3.3563 88.5374 3.58237 89.1694 3.8161 89.8228C3.89993 90.0572 3.98474 90.2942 4.06955 90.5351C4.20335 90.8837 4.33715 91.219 4.47096 91.5543L4.47115 91.5547C4.60502 91.8902 4.73889 92.2256 4.87276 92.5744C4.93299 92.7193 4.99323 92.8669 5.05408 93.016C5.26367 93.5296 5.48051 94.0609 5.7295 94.56L6.85398 96.975L30.8965 72.8789C30.7894 72.7447 30.6957 72.6105 30.602 72.4763C30.5083 72.3422 30.4146 72.208 30.3075 72.0739V71.9129ZM81.873 38.5323L38.393 82.1094V82.2167C38.6072 82.4851 39.0356 82.9681 39.0356 82.9681L13.8686 108.191C13.3331 107.494 12.8512 106.85 12.3693 106.152C12.0644 105.77 11.7866 105.361 11.5166 104.963L11.5164 104.963C11.4072 104.802 11.2992 104.643 11.1913 104.488C11.004 104.193 10.8166 103.912 10.6293 103.63L10.629 103.63C10.4416 103.348 10.2542 103.066 10.0668 102.771C9.58486 102.02 9.15649 101.322 8.72811 100.571L33.2525 75.9914L33.8951 76.7964L76.5183 34.078C76.9466 34.3463 77.3213 34.6682 77.696 34.9901L77.6963 34.9904L102.435 10.1965C103.613 10.8942 104.684 11.6455 105.808 12.4505L80.7485 37.5663L81.873 38.5323ZM91.1901 47.5484L47.3405 91.4958C47.6142 91.7269 48.0314 92.1451 48.0314 92.1451L22.7038 117.529C22.5158 117.358 22.3223 117.187 22.1268 117.013L22.1266 117.013L22.126 117.013C21.7095 116.644 21.284 116.267 20.8832 115.866C20.6423 115.624 20.4013 115.396 20.1603 115.168C19.9194 114.94 19.6784 114.712 19.4375 114.47C19.1965 114.229 18.969 113.987 18.7414 113.746L18.741 113.745C18.5136 113.504 18.2861 113.263 18.0453 113.021C17.8631 112.82 17.6748 112.62 17.4845 112.417C17.1153 112.023 16.7386 111.622 16.3853 111.197L41.7129 85.8124C41.9271 86.0808 42.409 86.5638 42.409 86.5638L86.2638 42.611C86.4512 42.772 86.6253 42.9465 86.7993 43.1209L86.7994 43.1209L86.7994 43.121L86.7995 43.1211L86.7996 43.1211L86.7996 43.1212C86.9735 43.2955 87.1475 43.4698 87.3348 43.6307L112.716 18.1929C112.957 18.4344 113.198 18.6624 113.439 18.8905C113.68 19.1186 113.921 19.3467 114.162 19.5882L114.162 19.5885C114.644 20.0714 115.126 20.5543 115.554 21.0372L90.1727 46.475C90.3333 46.6628 90.5073 46.8372 90.6813 47.0115L90.6814 47.0116L90.6814 47.0117L90.6815 47.0118C90.8555 47.1861 91.0295 47.3605 91.1901 47.5484ZM99.7576 57.3157L57.1344 100.034H57.2415L58.0447 100.678L33.5203 125.257C32.7706 124.828 32.0209 124.399 31.3248 123.916C31.0303 123.728 30.7492 123.54 30.4681 123.352C30.187 123.164 29.9058 122.976 29.6113 122.789C29.3444 122.601 29.0642 122.401 28.7839 122.2L28.783 122.2L28.7814 122.198L28.7797 122.197C28.4991 121.996 28.2186 121.795 27.9514 121.608C27.2553 121.125 26.5592 120.642 25.9166 120.105L51.0836 94.8822C51.3513 95.0968 51.8332 95.5262 51.8332 95.5262L95.3132 51.9491L96.277 53.0761L121.337 27.9603C122.14 29.0873 122.89 30.2143 123.586 31.3412L98.8473 56.1351L98.9179 56.2297L99.0384 56.392C99.2802 56.7179 99.5019 57.0168 99.7576 57.3157ZM67.8438 107.655L107.361 68.0489L106.558 66.7609L129.637 43.6307C129.155 42.289 128.619 40.9474 128.03 39.6594L104.309 63.4336C104.175 63.2189 104.028 63.0177 103.881 62.8164C103.733 62.6152 103.586 62.4139 103.452 62.1992L62.0607 103.683C61.9268 103.576 61.793 103.482 61.6591 103.388C61.5253 103.294 61.3914 103.2 61.2575 103.093L37.215 127.189L39.6246 128.316C39.8868 128.426 40.1491 128.544 40.4149 128.664C40.8005 128.838 41.1938 129.016 41.6059 129.175C42.2484 129.443 42.9445 129.711 43.6406 129.98C44.4974 130.302 45.3541 130.624 46.2644 130.892L68.9147 108.191C68.7808 108.111 68.6336 108.017 68.4863 107.923C68.3391 107.829 68.1918 107.735 68.058 107.655H67.8438ZM113.787 79.9628L79.7311 114.095L79.6776 114.148C79.8382 114.229 79.9988 114.296 80.1594 114.363L80.1597 114.363C80.3203 114.43 80.4808 114.497 80.6414 114.578L61.311 133.951C60.2401 133.897 59.2227 133.79 58.1518 133.629C57.295 133.522 56.4918 133.414 55.6886 133.253C55.001 133.162 54.3526 133.03 53.6762 132.893C53.5625 132.87 53.4481 132.847 53.3326 132.824C52.4223 132.609 51.4584 132.395 50.4946 132.18L72.2881 110.338C72.4488 110.418 72.596 110.499 72.7433 110.579C72.8905 110.66 73.0378 110.74 73.1984 110.821L110.521 73.4155C110.654 73.6302 110.775 73.8583 110.895 74.0863L110.895 74.0865L110.895 74.0866C111.016 74.3146 111.136 74.5426 111.27 74.7572L132.475 53.5053C132.796 55.1153 133.064 56.7253 133.278 58.3353L113.144 78.5138L113.787 79.9628ZM116.732 87.6372C116.571 87.1005 116.411 86.6175 116.196 86.0809L85.7819 116.563C85.6213 116.51 85.4473 116.443 85.2732 116.375C85.0992 116.308 84.9252 116.241 84.7645 116.188L66.8264 134.166C68.0044 134.166 69.236 134.166 70.414 134.059C71.4312 134.059 72.4485 133.951 73.4657 133.844L73.4661 133.844H73.4663H73.4664C74.5373 133.737 75.6081 133.629 76.679 133.468C77.9285 133.283 79.1381 133.057 80.3768 132.826C80.5713 132.79 80.7665 132.753 80.9627 132.717L94.7242 118.925C94.5368 118.898 94.336 118.858 94.1352 118.817C93.9344 118.777 93.7336 118.737 93.5462 118.71L118.338 93.8625C118.231 93.2721 118.124 92.7355 117.964 92.1451L133.064 77.0113C133.385 74.9183 133.599 72.8253 133.706 70.7323L116.732 87.7445V87.6372ZM99.9183 119.354H101.311H101.364L119.088 101.59L129.315 91.3401C128.887 92.5744 128.352 93.8087 127.816 94.9894C126.959 96.975 125.942 98.907 124.818 100.839C122.89 104.22 120.587 107.44 118.017 110.499C116.839 111.894 115.607 113.29 114.269 114.578C112.93 115.919 111.592 117.154 110.199 118.334C107.147 120.91 103.934 123.218 100.561 125.15C98.6332 126.223 96.7055 127.243 94.7243 128.155C93.4927 128.692 92.3147 129.175 91.0831 129.658L88.8341 130.463L99.9183 119.354Z" fill="white"/>
<path d="M127.865 167.43H119.448V144.145H127.865C134.812 144.145 139.655 148.869 139.655 155.655C139.655 162.607 134.812 167.43 127.865 167.43ZM123.456 147.738V163.838H128.132C132.474 163.838 135.513 160.478 135.513 155.655C135.513 151.097 132.474 147.738 128.132 147.738H123.456Z" fill="white"/>
<path d="M148.865 167.796C144.79 167.796 142.118 165.833 142.152 162.54C142.185 158.416 146.293 157.551 149.734 157.151C152.406 156.852 154.376 156.752 154.41 155.355C154.376 153.625 153.04 152.494 150.769 152.494C148.431 152.494 146.761 153.759 146.527 155.588H142.552C142.92 151.862 146.26 149.268 150.836 149.268C155.612 149.268 158.251 151.862 158.251 155.621V163.605C158.251 164.104 158.518 164.37 159.119 164.37H160.088V167.43H158.217C156.414 167.43 155.311 166.698 155.011 165.368C154.944 165.201 154.877 164.969 154.844 164.769C153.808 166.665 151.871 167.796 148.865 167.796ZM149.667 164.702C152.372 164.702 154.41 163.172 154.41 160.811V158.349C153.742 159.38 152.038 159.613 150.168 159.846C147.963 160.112 146.126 160.411 146.126 162.274C146.126 163.804 147.362 164.702 149.667 164.702Z" fill="white"/>
<path d="M172.353 167.43H170.082C166.241 167.43 164.17 165.534 164.17 162.041V153.127H161.064V149.8H164.17V143.779H168.111V149.8H172.687V153.127H168.111V161.775C168.111 163.272 168.879 164.104 170.349 164.104H172.353V167.43Z" fill="white"/>
<path d="M181.418 167.796C177.343 167.796 174.671 165.833 174.704 162.54C174.737 158.416 178.846 157.551 182.286 157.151C184.958 156.852 186.929 156.752 186.962 155.355C186.929 153.625 185.593 152.494 183.321 152.494C180.983 152.494 179.313 153.759 179.079 155.588H175.105C175.472 151.862 178.812 149.268 183.388 149.268C188.164 149.268 190.803 151.862 190.803 155.621V163.605C190.803 164.104 191.07 164.37 191.671 164.37H192.64V167.43H190.77C188.966 167.43 187.864 166.698 187.563 165.368C187.496 165.201 187.43 164.969 187.396 164.769C186.361 166.665 184.424 167.796 181.418 167.796ZM182.219 164.702C184.925 164.702 186.962 163.172 186.962 160.811V158.349C186.294 159.38 184.591 159.613 182.72 159.846C180.516 160.112 178.679 160.411 178.679 162.274C178.679 163.804 179.914 164.702 182.219 164.702Z" fill="white"/>
<path d="M210.33 167.43H206.189L200.945 149.8H204.986L208.56 162.574L212.067 149.8H215.34L218.881 162.441L222.388 149.8H226.429L221.185 167.43L217.111 167.43L213.704 155.388L210.33 167.43Z" fill="white"/>
<path d="M230.84 147.438C229.404 147.438 228.302 146.307 228.302 144.877C228.302 143.447 229.404 142.349 230.84 142.349C232.31 142.349 233.379 143.447 233.379 144.877C233.379 146.307 232.31 147.438 230.84 147.438ZM232.811 167.43H228.87V149.8H232.811V167.43Z" fill="white"/>
<path d="M246.982 167.43H244.711C240.87 167.43 238.799 165.534 238.799 162.041V153.127H235.693V149.8H238.799V143.779H242.74V149.8H247.316V153.127H242.74V161.775C242.74 163.272 243.508 164.104 244.978 164.104H246.982V167.43Z" fill="white"/>
<path d="M254.21 167.43H250.268V142.482H254.21V151.696C255.412 150.233 257.449 149.268 259.754 149.268C263.528 149.268 266 151.796 266 155.754V167.43H262.059V155.954C262.059 153.991 260.756 152.694 258.652 152.694C255.98 152.694 254.243 154.457 254.21 156.752V167.43Z" fill="white"/>
<path d="M123.022 214H119.047V189.717H122.22L122.621 192.611C123.79 190.549 126.094 189.185 128.9 189.185C133.576 189.185 136.883 192.977 136.883 198.432C136.883 203.988 133.576 207.846 128.867 207.846C126.328 207.846 124.224 206.715 123.022 204.886V214ZM127.998 204.52C130.871 204.52 132.841 202.025 132.841 198.432C132.841 194.94 130.871 192.511 127.965 192.511C125.059 192.511 123.022 194.906 123.022 198.333C123.022 201.958 125.059 204.52 127.998 204.52Z" fill="white"/>
<path d="M146.3 207.846C142.092 207.846 139.653 205.218 139.653 201.393V189.717H143.595V201.227C143.595 203.222 144.997 204.387 147.102 204.387C149.807 204.387 151.41 202.624 151.444 200.362V189.717H155.385V207.347H152.212L151.911 204.786C150.876 206.682 148.772 207.846 146.3 207.846Z" fill="white"/>
<path d="M163.335 207.347H159.394V189.717H162.567L163.035 193.177C164.17 190.782 166.241 189.518 169.18 189.518H169.848V193.343H169.18C165.506 193.343 163.335 195.306 163.335 198.632V207.347Z" fill="white"/>
<path d="M176.449 214H172.475V189.717H175.648L176.048 192.611C177.217 190.549 179.522 189.185 182.328 189.185C187.004 189.185 190.31 192.977 190.31 198.432C190.31 203.988 187.004 207.846 182.294 207.846C179.756 207.846 177.652 206.715 176.449 204.886V214ZM181.426 204.52C184.298 204.52 186.269 202.025 186.269 198.432C186.269 194.94 184.298 192.511 181.392 192.511C178.487 192.511 176.449 194.906 176.449 198.333C176.449 201.958 178.487 204.52 181.426 204.52Z" fill="white"/>
<path d="M201.531 207.846C195.786 207.846 192.446 203.821 192.446 198.366C192.446 192.611 196.354 189.185 201.531 189.185C207.243 189.185 210.583 193.177 210.583 198.366C210.583 204.32 206.809 207.846 201.531 207.846ZM201.531 204.487C204.704 204.487 206.575 201.892 206.575 198.366C206.575 194.873 204.604 192.545 201.531 192.545C198.459 192.545 196.455 194.873 196.455 198.366C196.455 202.225 198.626 204.487 201.531 204.487Z" fill="white"/>
<path d="M220.717 207.846C215.874 207.846 213.002 205.584 212.768 201.726H216.576C216.709 203.622 218.346 204.62 220.517 204.62C222.521 204.62 223.59 203.855 223.59 202.491C223.59 201.127 222.454 200.861 220.918 200.362L218.58 199.597C215.64 198.632 213.102 197.634 213.102 194.374C213.102 191.247 215.507 189.185 219.749 189.185C223.857 189.185 226.663 191.347 227.13 195.339H223.389C223.189 193.343 221.753 192.412 219.715 192.412C217.978 192.412 216.976 193.143 216.976 194.341C216.976 195.705 218.513 196.071 219.782 196.503L221.92 197.202C225.427 198.366 227.531 199.43 227.531 202.59C227.531 205.85 225.059 207.846 220.717 207.846Z" fill="white"/>
<path d="M238.553 207.846C233.142 207.846 229.435 203.988 229.435 198.599C229.435 192.778 233.276 189.185 238.219 189.185C243.229 189.185 246.569 192.678 246.669 198.399V199.331H233.376C233.643 202.424 235.581 204.52 238.587 204.52C240.624 204.52 242.16 203.522 242.762 201.759H246.603C245.701 205.551 242.728 207.846 238.553 207.846ZM233.543 196.57H242.595C242.094 194.042 240.524 192.511 238.219 192.511C235.881 192.511 234.144 194.042 233.543 196.57Z" fill="white"/>
</svg>
