<svg width="422" height="421" viewBox="0 0 422 421" fill="none" xmlns="http://www.w3.org/2000/svg">
<path d="M-1.50009 -282.394L217.214 -282.394L217.214 -286.551L-1.50009 -286.551L-1.50009 -282.394ZM873.786 622.221L1092.5 622.221L1092.5 645.348L873.786 645.348L873.786 622.221ZM654.634 640.029L435.92 640.029L435.92 637.946L217.205 637.946L217.205 629.624L435.92 629.624L435.92 627.541L654.634 627.541L654.634 625.666L873.349 625.666L873.349 641.895L654.634 641.895L654.634 640.019L654.634 640.029ZM654.634 263.309L435.92 263.309L435.92 261.226L217.205 261.226L217.205 252.904L435.92 252.904L435.92 250.821L654.634 250.821L654.634 248.946L873.349 248.946L873.349 265.175L654.634 265.175L654.634 263.3L654.634 263.309ZM654.634 -42.7767L435.919 -42.7767L435.919 -44.8595L217.205 -44.8595L217.205 -53.1817L435.919 -53.1817L435.919 -55.2644L654.634 -55.2644L654.634 -57.1397L873.349 -57.1397L873.349 -40.9104L654.634 -40.9103L654.634 -42.7858L654.634 -42.7767ZM654.634 451.669L435.92 451.669L435.92 449.586L217.205 449.586L217.205 441.264L435.92 441.264L435.92 439.181L654.634 439.181L654.634 437.306L873.349 437.306L873.349 453.535L654.634 453.535L654.634 451.66L654.634 451.669ZM654.634 74.9492L435.919 74.9492L435.919 72.8664L217.205 72.8664L217.205 64.5444L435.919 64.5444L435.919 62.4616L654.634 62.4616L654.634 60.5862L873.349 60.5862L873.349 76.8155L654.634 76.8155L654.634 74.9402L654.634 74.9492ZM654.634 -231.137L435.919 -231.137L435.919 -233.219L217.205 -233.219L217.205 -241.541L435.919 -241.541L435.919 -243.624L654.634 -243.624L654.634 -245.5L873.349 -245.5L873.349 -229.27L654.634 -229.27L654.634 -231.146L654.634 -231.137ZM654.634 545.853L435.92 545.853L435.92 543.77L217.205 543.77L217.205 535.448L435.92 535.448L435.92 533.366L654.634 533.366L654.634 531.49L873.349 531.49L873.349 547.719L654.634 547.72L654.634 545.844L654.634 545.853ZM654.634 169.134L435.92 169.134L435.92 167.051L217.205 167.051L217.205 158.729L435.92 158.729L435.92 156.646L654.634 156.646L654.634 154.771L873.349 154.771L873.349 171L654.634 171L654.634 169.125L654.634 169.134ZM654.634 -136.952L435.919 -136.952L435.919 -139.035L217.205 -139.035L217.205 -147.357L435.919 -147.357L435.919 -149.44L654.634 -149.44L654.634 -151.315L873.349 -151.315L873.349 -135.086L654.634 -135.086L654.634 -136.961L654.634 -136.952ZM654.634 357.493L435.92 357.493L435.92 355.411L217.205 355.411L217.205 347.089L435.92 347.089L435.92 345.006L654.634 345.006L654.634 343.13L873.349 343.13L873.349 359.36L654.634 359.36L654.634 357.484L654.634 357.493ZM654.634 -19.2262L435.919 -19.2262L435.919 -21.3089L217.205 -21.3089L217.205 -29.631L435.919 -29.631L435.919 -31.7138L654.634 -31.7139L654.634 -33.5892L873.349 -33.5892L873.349 -17.3598L654.634 -17.3598L654.634 -19.2352L654.634 -19.2262ZM873.785 245.511L1092.5 245.511L1092.5 268.638L873.785 268.638L873.785 245.511ZM873.785 433.871L1092.5 433.871L1092.5 456.997L873.785 456.997L873.785 433.871ZM873.785 57.151L1092.5 57.151L1092.5 80.2778L873.785 80.2778L873.785 57.151ZM873.786 528.055L1092.5 528.055L1092.5 551.182L873.786 551.182L873.786 528.055ZM873.785 151.335L1092.5 151.335L1092.5 174.462L873.785 174.462L873.785 151.335ZM873.785 339.695L1092.5 339.695L1092.5 362.822L873.785 362.822L873.785 339.695ZM873.785 -37.0243L1092.5 -37.0243L1092.5 -13.8976L873.785 -13.8976L873.785 -37.0243ZM873.786 716L873.786 692.873L1092.5 692.873L1092.5 715.982L873.786 715.982L873.786 716ZM654.634 710.68L435.92 710.68L435.92 708.598L217.205 708.598L217.205 700.276L435.92 700.276L435.92 698.193L654.634 698.193L654.634 696.317L873.349 696.317L873.349 712.529L654.634 712.529L654.634 710.653L654.634 710.68ZM-1.5 678.79L217.215 678.79L217.215 682.946L-1.5 682.946L-1.5 678.79ZM-1.5 702.34L217.215 702.34L217.215 706.506L-1.5 706.506L-1.5 702.34ZM-1.50004 302.07L217.215 302.07L217.215 306.227L-1.50004 306.227L-1.50004 302.07ZM-1.50002 490.43L217.215 490.43L217.215 494.586L-1.50002 494.586L-1.50002 490.43ZM-1.50005 113.71L217.215 113.71L217.215 117.867L-1.50005 117.867L-1.50005 113.71ZM-1.50008 -168.834L217.214 -168.834L217.214 -164.677L-1.50008 -164.677L-1.50008 -168.834ZM-1.50001 584.614L217.215 584.614L217.215 588.771L-1.50001 588.771L-1.50001 584.614ZM-1.50004 207.895L217.215 207.895L217.215 212.051L-1.50004 212.051L-1.50004 207.895ZM-1.50007 -74.6494L217.214 -74.6494L217.214 -70.4929L-1.50007 -70.4929L-1.50007 -74.6494ZM-1.50003 396.255L217.215 396.255L217.215 400.411L-1.50003 400.411L-1.50003 396.255ZM-1.50006 19.535L217.214 19.535L217.214 23.6914L-1.50006 23.6915L-1.50006 19.535ZM-1.50009 -263.009L217.214 -263.009L217.214 -258.844L-1.50009 -258.844L-1.50009 -263.009ZM-1.50001 631.697L217.215 631.697L217.215 635.854L-1.50001 635.854L-1.50001 631.697ZM-1.50004 254.978L217.215 254.978L217.215 259.134L-1.50004 259.134L-1.50004 254.978ZM-1.50002 443.338L217.215 443.338L217.215 447.494L-1.50002 447.494L-1.50002 443.338ZM-1.50006 66.6182L217.214 66.6181L217.214 70.7747L-1.50006 70.7747L-1.50006 66.6182ZM-1.50008 -215.926L217.214 -215.926L217.214 -211.761L-1.50008 -211.76L-1.50008 -215.926ZM-1.50002 537.522L217.215 537.522L217.215 541.679L-1.50002 541.679L-1.50002 537.522ZM-1.50005 160.803L217.215 160.803L217.215 164.968L-1.50005 164.968L-1.50005 160.803ZM-1.50007 -121.733L217.214 -121.733L217.214 -117.576L-1.50007 -117.576L-1.50007 -121.733ZM-1.50003 349.162L217.215 349.162L217.215 353.319L-1.50003 353.319L-1.50003 349.162ZM-1.50007 -27.5571L217.214 -27.5571L217.214 -23.3917L-1.50006 -23.3917L-1.50007 -27.5571ZM-1.50001 655.248L217.215 655.248L217.215 659.414L-1.5 659.414L-1.50001 655.248ZM-1.50004 278.529L217.215 278.529L217.215 282.694L-1.50004 282.694L-1.50004 278.529ZM-1.50002 466.888L217.215 466.888L217.215 471.054L-1.50002 471.054L-1.50002 466.888ZM-1.50005 90.1688L217.214 90.1687L217.214 94.3253L-1.50005 94.3253L-1.50005 90.1688ZM-1.50008 -192.375L217.214 -192.375L217.214 -188.219L-1.50008 -188.219L-1.50008 -192.375ZM-1.50001 561.064L217.215 561.064L217.215 565.22L-1.50001 565.22L-1.50001 561.064ZM-1.50005 184.344L217.215 184.344L217.215 188.501L-1.50005 188.501L-1.50005 184.344ZM-1.50007 -98.2L217.214 -98.2L217.214 -94.0435L-1.50007 -94.0435L-1.50007 -98.2ZM-1.50003 372.704L217.215 372.704L217.215 376.86L-1.50003 376.86L-1.50003 372.704ZM-1.50006 -4.01556L217.214 -4.01558L217.214 0.140911L-1.50006 0.14093L-1.50006 -4.01556ZM-1.50001 608.156L217.215 608.156L217.215 612.312L-1.50001 612.312L-1.50001 608.156ZM-1.50004 231.436L217.215 231.436L217.215 235.593L-1.50004 235.593L-1.50004 231.436ZM-1.50003 419.796L217.215 419.796L217.215 423.953L-1.50003 423.953L-1.50003 419.796ZM-1.50006 43.0766L217.214 43.0766L217.214 47.2331L-1.50006 47.2331L-1.50006 43.0766ZM-1.50008 -239.468L217.214 -239.468L217.214 -235.311L-1.50008 -235.311L-1.50008 -239.468ZM-1.50002 513.981L217.215 513.98L217.215 518.137L-1.50002 518.137L-1.50002 513.981ZM-1.50005 137.261L217.215 137.261L217.215 141.417L-1.50005 141.417L-1.50005 137.261ZM-1.50008 -145.283L217.214 -145.283L217.214 -141.118L-1.50007 -141.118L-1.50008 -145.283ZM-1.50003 325.612L217.215 325.612L217.215 329.768L-1.50003 329.768L-1.50003 325.612ZM-1.50007 -51.1078L217.214 -51.1079L217.214 -46.9513L-1.50007 -46.9513L-1.50007 -51.1078ZM654.634 333.934L435.92 333.934L435.92 331.851L217.205 331.851L217.205 323.529L435.92 323.529L435.92 321.446L654.634 321.446L654.634 319.571L873.349 319.571L873.349 335.8L654.634 335.8L654.634 333.925L654.634 333.934ZM654.634 522.293L435.92 522.294L435.92 520.211L217.205 520.211L217.205 511.889L435.92 511.889L435.92 509.806L654.634 509.806L654.634 507.93L873.349 507.93L873.349 524.16L654.634 524.16L654.634 522.284L654.634 522.293ZM654.634 145.574L435.92 145.574L435.92 143.491L217.205 143.491L217.205 135.169L435.92 135.169L435.92 133.086L654.634 133.086L654.634 131.211L873.349 131.211L873.349 147.44L654.634 147.44L654.634 145.565L654.634 145.574ZM654.634 -160.512L435.919 -160.512L435.919 -162.595L217.205 -162.595L217.205 -170.917L435.919 -170.917L435.919 -172.999L654.634 -172.999L654.634 -174.875L873.349 -174.875L873.349 -158.645L654.634 -158.645L654.634 -160.521L654.634 -160.512ZM654.634 616.478L435.92 616.478L435.92 614.395L217.205 614.395L217.205 606.073L435.92 606.073L435.92 603.99L654.634 603.99L654.634 602.115L873.349 602.115L873.349 618.344L654.634 618.344L654.634 616.469L654.634 616.478ZM654.634 239.758L435.92 239.758L435.92 237.676L217.205 237.676L217.205 229.354L435.92 229.354L435.92 227.271L654.634 227.271L654.634 225.395L873.349 225.395L873.349 241.625L654.634 241.625L654.634 239.749L654.634 239.758ZM654.634 -66.3274L435.919 -66.3274L435.919 -68.4101L217.205 -68.4101L217.205 -76.7322L435.919 -76.7322L435.919 -78.815L654.634 -78.8151L654.634 -80.6904L873.349 -80.6904L873.349 -64.4611L654.634 -64.4611L654.634 -66.3364L654.634 -66.3274ZM654.634 428.118L435.92 428.118L435.92 426.035L217.205 426.035L217.205 417.713L435.92 417.713L435.92 415.631L654.634 415.631L654.634 413.755L873.349 413.755L873.349 429.984L654.634 429.985L654.634 428.109L654.634 428.118ZM654.634 51.3986L435.919 51.3986L435.919 49.3158L217.205 49.3158L217.205 40.9938L435.919 40.9938L435.919 38.911L654.634 38.911L654.634 37.0356L873.349 37.0356L873.349 53.2649L654.634 53.265L654.634 51.3897L654.634 51.3986ZM654.634 -254.687L435.919 -254.687L435.919 -256.77L217.205 -256.77L217.205 -265.092L435.919 -265.092L435.919 -267.175L654.634 -267.175L654.634 -269.05L873.349 -269.05L873.349 -252.821L654.634 -252.821L654.634 -254.696L654.634 -254.687ZM873.785 316.136L1092.5 316.136L1092.5 339.262L873.785 339.262L873.785 316.136ZM873.786 504.495L1092.5 504.495L1092.5 527.622L873.786 527.622L873.786 504.495ZM873.785 127.776L1092.5 127.776L1092.5 150.903L873.785 150.903L873.785 127.776ZM873.786 598.68L1092.5 598.68L1092.5 621.806L873.786 621.807L873.786 598.68ZM873.785 221.96L1092.5 221.96L1092.5 245.087L873.785 245.087L873.785 221.96ZM873.785 410.32L1092.5 410.32L1092.5 433.447L873.785 433.447L873.785 410.32ZM873.785 33.6003L1092.5 33.6003L1092.5 56.7272L873.785 56.7272L873.785 33.6003ZM873.786 645.772L1092.5 645.772L1092.5 668.899L873.786 668.899L873.786 645.772ZM654.634 663.579L435.92 663.579L435.92 661.496L217.205 661.496L217.205 653.174L435.92 653.174L435.92 651.092L654.634 651.092L654.634 649.216L873.349 649.216L873.349 665.445L654.634 665.445L654.634 663.57L654.634 663.579ZM654.634 286.86L435.92 286.86L435.92 284.777L217.205 284.777L217.205 276.455L435.92 276.455L435.92 274.372L654.634 274.372L654.634 272.497L873.349 272.497L873.349 288.726L654.634 288.726L654.634 286.851L654.634 286.86ZM654.634 475.219L435.92 475.219L435.92 473.137L217.205 473.137L217.205 464.815L435.92 464.815L435.92 462.732L654.634 462.732L654.634 460.856L873.349 460.856L873.349 477.086L654.634 477.086L654.634 475.21L654.634 475.219ZM654.634 98.4998L435.92 98.4998L435.92 96.417L217.205 96.417L217.205 88.095L435.92 88.0949L435.92 86.0122L654.634 86.0121L654.634 84.1368L873.349 84.1368L873.349 100.366L654.634 100.366L654.634 98.4908L654.634 98.4998ZM654.634 -207.586L435.919 -207.586L435.919 -209.669L217.205 -209.669L217.205 -217.991L435.919 -217.991L435.919 -220.074L654.634 -220.074L654.634 -221.949L873.349 -221.949L873.349 -205.72L654.634 -205.72L654.634 -207.595L654.634 -207.586ZM654.634 569.404L435.92 569.404L435.92 567.321L217.205 567.321L217.205 558.999L435.92 558.999L435.92 556.916L654.634 556.916L654.634 555.041L873.349 555.041L873.349 571.27L654.634 571.27L654.634 569.395L654.634 569.404ZM654.634 192.684L435.92 192.684L435.92 190.601L217.205 190.601L217.205 182.279L435.92 182.279L435.92 180.197L654.634 180.197L654.634 178.321L873.349 178.321L873.349 194.551L654.634 194.551L654.634 192.675L654.634 192.684ZM654.634 -113.401L435.919 -113.401L435.919 -115.484L217.205 -115.484L217.205 -123.806L435.919 -123.806L435.919 -125.889L654.634 -125.889L654.634 -127.765L873.349 -127.765L873.349 -111.535L654.634 -111.535L654.634 -113.411L654.634 -113.401ZM654.634 381.044L435.92 381.044L435.92 378.961L217.205 378.961L217.205 370.639L435.92 370.639L435.92 368.556L654.634 368.556L654.634 366.681L873.349 366.681L873.349 382.91L654.634 382.91L654.634 381.035L654.634 381.044ZM654.634 4.32441L435.919 4.32442L435.919 2.24166L217.205 2.24168L217.205 -6.0804L435.919 -6.08042L435.919 -8.16312L654.634 -8.16314L654.634 -10.0386L873.349 -10.0386L873.349 6.19084L654.634 6.19086L654.634 4.31537L654.634 4.32441ZM873.785 269.061L1092.5 269.061L1092.5 292.188L873.785 292.188L873.785 269.061ZM873.785 457.421L1092.5 457.421L1092.5 480.548L873.786 480.548L873.785 457.421ZM873.785 80.7015L1092.5 80.7015L1092.5 103.828L873.785 103.828L873.785 80.7015ZM873.786 551.606L1092.5 551.605L1092.5 574.732L873.786 574.732L873.786 551.606ZM873.785 174.886L1092.5 174.886L1092.5 198.013L873.785 198.013L873.785 174.886ZM873.785 363.246L1092.5 363.246L1092.5 386.373L873.785 386.373L873.785 363.246ZM873.785 -13.4738L1092.5 -13.4738L1092.5 9.65304L873.785 9.65306L873.785 -13.4738ZM873.786 669.331L1092.5 669.331L1092.5 692.458L873.786 692.458L873.786 669.331ZM654.634 687.139L435.92 687.139L435.92 685.056L217.205 685.056L217.205 676.734L435.92 676.734L435.92 674.651L654.634 674.651L654.634 672.776L873.349 672.776L873.349 689.005L654.634 689.005L654.634 687.13L654.634 687.139ZM654.634 310.419L435.92 310.419L435.92 308.336L217.205 308.336L217.205 300.014L435.92 300.014L435.92 297.932L654.634 297.932L654.634 296.056L873.349 296.056L873.349 312.286L654.634 312.286L654.634 310.41L654.634 310.419ZM654.634 498.779L435.92 498.779L435.92 496.696L217.205 496.696L217.205 488.374L435.92 488.374L435.92 486.291L654.634 486.291L654.634 484.416L873.349 484.416L873.349 500.645L654.634 500.645L654.634 498.77L654.634 498.779ZM654.634 122.059L435.92 122.059L435.92 119.977L217.205 119.977L217.205 111.655L435.92 111.655L435.92 109.572L654.634 109.572L654.634 107.696L873.349 107.696L873.349 123.926L654.634 123.926L654.634 122.05L654.634 122.059ZM654.634 -184.026L435.919 -184.026L435.919 -186.109L217.205 -186.109L217.205 -194.431L435.919 -194.431L435.919 -196.514L654.634 -196.514L654.634 -198.389L873.349 -198.389L873.349 -182.16L654.634 -182.16L654.634 -184.035L654.634 -184.026ZM654.634 592.963L435.92 592.963L435.92 590.881L217.205 590.881L217.205 582.559L435.92 582.559L435.92 580.476L654.634 580.476L654.634 578.6L873.349 578.6L873.349 594.83L654.634 594.83L654.634 592.954L654.634 592.963ZM654.634 216.244L435.92 216.244L435.92 214.161L217.205 214.161L217.205 205.839L435.92 205.839L435.92 203.756L654.634 203.756L654.634 201.881L873.349 201.881L873.349 218.11L654.634 218.11L654.634 216.235L654.634 216.244ZM654.634 -89.842L435.919 -89.842L435.919 -91.9247L217.205 -91.9246L217.205 -100.247L435.919 -100.247L435.919 -102.33L654.634 -102.33L654.634 -104.205L873.349 -104.205L873.349 -87.9756L654.634 -87.9756L654.634 -89.8509L654.634 -89.842ZM654.634 404.604L435.92 404.604L435.92 402.521L217.205 402.521L217.205 394.199L435.92 394.199L435.92 392.116L654.634 392.116L654.634 390.241L873.349 390.241L873.349 406.47L654.634 406.47L654.634 404.595L654.634 404.604ZM654.634 27.884L435.919 27.8841L435.919 25.8014L217.205 25.8014L217.205 17.4792L435.919 17.4792L435.919 15.3964L654.634 15.3964L654.634 13.5211L873.349 13.521L873.349 29.7504L654.634 29.7504L654.634 27.875L654.634 27.884ZM654.634 -278.202L435.919 -278.202L435.919 -280.284L217.205 -280.284L217.205 -288.606L435.919 -288.606L435.919 -290.689L654.634 -290.689L654.634 -292.565L873.349 -292.565L873.349 -276.335L654.634 -276.335L654.634 -278.211L654.634 -278.202ZM873.785 292.621L1092.5 292.621L1092.5 315.748L873.785 315.748L873.785 292.621ZM873.786 480.981L1092.5 480.981L1092.5 504.108L873.786 504.108L873.786 480.981ZM873.785 104.261L1092.5 104.261L1092.5 127.388L873.785 127.388L873.785 104.261ZM873.786 575.165L1092.5 575.165L1092.5 598.292L873.786 598.292L873.786 575.165ZM873.785 198.446L1092.5 198.446L1092.5 221.572L873.785 221.572L873.785 198.446ZM873.785 386.805L1092.5 386.805L1092.5 409.932L873.785 409.932L873.785 386.805ZM873.785 10.0859L1092.5 10.0858L1092.5 33.2126L873.785 33.2126L873.785 10.0859ZM873.785 -84.0986L1092.5 -84.0986L1092.5 -60.9717L873.785 -60.9717L873.785 -84.0986ZM873.785 -272.458L1092.5 -272.458L1092.5 -249.332L873.785 -249.331L873.785 -272.458ZM873.785 -178.274L1092.5 -178.274L1092.5 -155.147L873.785 -155.147L873.785 -178.274ZM873.785 -201.816L1092.5 -201.816L1092.5 -178.689L873.785 -178.689L873.785 -201.816ZM873.785 -107.64L1092.5 -107.64L1092.5 -84.5134L873.785 -84.5134L873.785 -107.64ZM873.785 -296L1092.5 -296L1092.5 -272.873L873.785 -272.873L873.785 -296ZM873.785 -60.5481L1092.5 -60.5481L1092.5 -37.4211L873.785 -37.4211L873.785 -60.5481ZM873.785 -248.908L1092.5 -248.908L1092.5 -225.781L873.785 -225.781L873.785 -248.908ZM873.785 -154.732L1092.5 -154.732L1092.5 -131.606L873.785 -131.606L873.785 -154.732ZM873.785 -225.366L1092.5 -225.366L1092.5 -202.239L873.785 -202.239L873.785 -225.366ZM873.785 -131.182L1092.5 -131.182L1092.5 -108.055L873.785 -108.055L873.785 -131.182Z" fill="#FFE76D"/>
</svg>
