<svg width="21" height="21" viewBox="0 0 21 21" fill="none" xmlns="http://www.w3.org/2000/svg">
<path d="M15.526 12.4524C15.8515 12.127 16.3791 12.127 16.7045 12.4524C17.03 12.7778 17.03 13.3055 16.7045 13.6309L13.2129 17.1226C10.9337 19.4017 7.2385 19.4017 4.95936 17.1226C2.68021 14.8434 2.68021 11.1482 4.95936 8.86907L10.1177 3.71074C11.7456 2.08283 14.385 2.08283 16.0129 3.71074C17.6408 5.33865 17.6408 7.97801 16.0123 9.60648L10.8462 14.7642C9.86953 15.7409 8.28603 15.7409 7.30936 14.7642C6.33268 13.7876 6.33268 12.2041 7.31001 11.2267L10.2183 8.32675C10.5441 8.00167 11.0718 8.00226 11.3969 8.32806C11.7219 8.65386 11.7213 9.1815 11.3955 9.50657L8.48787 12.4059C8.16207 12.7317 8.16207 13.2599 8.48787 13.5857C8.81367 13.9115 9.34189 13.9115 9.66826 13.5852L14.8344 8.42741C15.8114 7.45037 15.8114 5.86628 14.8344 4.88925C13.8573 3.91222 12.2732 3.91222 11.2962 4.88925L6.13787 10.0476C4.5096 11.6759 4.5096 14.3158 6.13787 15.9441C7.76614 17.5723 10.4061 17.5723 12.0344 15.9441L15.526 12.4524Z" fill="black"/>
</svg>
