<svg width="20" height="20" viewBox="0 0 20 20" fill="none" xmlns="http://www.w3.org/2000/svg">
    <path fill-rule="evenodd" clip-rule="evenodd" d="M12.4993 3.33335H15.4875L7.74343 11.0774C7.41799 11.4029 7.41799 11.9305 7.74343 12.2559C8.06886 12.5814 8.5965 12.5814 8.92194 12.2559L16.666 4.51186V7.50002C16.666 7.96026 17.0391 8.33335 17.4993 8.33335C17.9596 8.33335 18.3327 7.96026 18.3327 7.50002V2.50002C18.3327 2.03978 17.9596 1.66669 17.4993 1.66669H12.4993C12.0391 1.66669 11.666 2.03978 11.666 2.50002C11.666 2.96026 12.0391 3.33335 12.4993 3.33335ZM14.9993 10C14.5391 10 14.166 10.3731 14.166 10.8334V15.8334C14.166 16.2936 13.7929 16.6667 13.3327 16.6667H4.16602C3.70578 16.6667 3.33268 16.2936 3.33268 15.8334V6.66669C3.33268 6.20645 3.70578 5.83335 4.16602 5.83335H9.16602C9.62625 5.83335 9.99935 5.46026 9.99935 5.00002C9.99935 4.53978 9.62625 4.16669 9.16602 4.16669H4.16602C2.7853 4.16669 1.66602 5.28598 1.66602 6.66669V15.8334C1.66602 17.2141 2.7853 18.3334 4.16602 18.3334H13.3327C14.7134 18.3334 15.8327 17.2141 15.8327 15.8334V10.8334C15.8327 10.3731 15.4596 10 14.9993 10Z" fill="white"/>
</svg>